<?xml version="1.0" encoding="UTF-8"?>

<!DOCTYPE svg PUBLIC '-//W3C//DTD SVG 1.0//EN' 'http://www.w3.org/TR/2001/REC-SVG-20010904/DTD/svg10.dtd'>
<svg xmlns:xlink="http://www.w3.org/1999/xlink" style="fill-opacity:1; color-rendering:auto; color-interpolation:auto; stroke:black; text-rendering:auto; stroke-linecap:square; stroke-miterlimit:10; stroke-opacity:1; shape-rendering:auto; fill:black; stroke-dasharray:none; font-weight:normal; stroke-width:1; font-family:&apos;Dialog&apos;; font-style:normal; stroke-linejoin:miter; font-size:12; stroke-dashoffset:0; image-rendering:auto;" xmlns="http://www.w3.org/2000/svg">
  <!--Generated by the Batik Graphics2D SVG Generator-->
  <defs id="genericDefs" />
  <g>
    <g transform="translate(340,90)" style="font-size:14; text-rendering:geometricPrecision; color-rendering:optimizeQuality; image-rendering:optimizeSpeed; font-family:sans-serif; color-interpolation:linearRGB;">
      <text xml:space="preserve" x="44" y="17" style="stroke:none;">«Interface»</text>
      <text xml:space="preserve" x="27" y="34" style="stroke:none;">johar::GemBase</text>
      <rect x="0" y="0" width="159" style="fill:white; opacity:0; stroke:none;" height="49" />
      <rect x="0" y="0" width="159" style="fill:none;" height="49" />
      <text x="39" y="17" transform="translate(-250,120)" style="stroke:none;" xml:space="preserve">«Interface»</text>
      <text x="14" y="34" transform="translate(-250,120)" style="stroke:none;" xml:space="preserve">johar::GemSetting</text>
      <rect x="0" y="0" transform="translate(-250,120)" width="149" style="fill:white; opacity:0; stroke:none;" height="49" />
      <rect x="0" y="0" transform="translate(-250,120)" width="149" style="fill:none;" height="49" />
      <text x="39" y="17" transform="translate(260,120)" style="stroke:none;" xml:space="preserve">«Interface»</text>
      <text x="38" y="34" transform="translate(260,120)" style="stroke:none;" xml:space="preserve">johar::Gem</text>
      <rect x="0" y="0" transform="translate(260,120)" width="149" style="fill:white; opacity:0; stroke:none;" height="49" />
      <rect x="0" y="0" transform="translate(260,120)" width="149" style="fill:none;" height="49" />
      <line transform="translate(-190,30)" x1="230" x2="230" y1="20" style="fill:none;" y2="60" />
      <line transform="translate(-190,30)" x1="230" x2="125" y1="60" style="fill:none;" y2="60" />
      <line transform="translate(-190,30)" x1="125" x2="20" y1="60" style="fill:none;" y2="60" />
      <line transform="translate(-190,30)" x1="20" x2="20" y1="60" style="fill:none;" y2="90" />
      <line transform="translate(-190,30)" x1="230" x2="236" y1="20" style="fill:none;" y2="32" />
      <line transform="translate(-190,30)" x1="230" x2="224" y1="20" style="fill:none;" y2="32" />
      <polygon style="fill:white; stroke:none;" transform="translate(-190,30)" points=" 230 20 236 32 224 32" />
      <polygon style="fill:none;" transform="translate(-190,30)" points=" 230 20 236 32 224 32" />
      <line transform="translate(100,30)" x1="20" x2="20" y1="20" style="fill:none;" y2="60" />
      <line transform="translate(100,30)" x1="20" x2="130" y1="60" style="fill:none;" y2="60" />
      <line transform="translate(100,30)" x1="130" x2="240" y1="60" style="fill:none;" y2="60" />
      <line transform="translate(100,30)" x1="240" x2="240" y1="60" style="fill:none;" y2="90" />
      <line transform="translate(100,30)" x1="20" x2="26" y1="20" style="fill:none;" y2="32" />
      <line transform="translate(100,30)" x1="20" x2="14" y1="20" style="fill:none;" y2="32" />
      <polygon style="fill:white; stroke:none;" transform="translate(100,30)" points=" 20 20 26 32 14 32" />
      <polygon style="fill:none;" transform="translate(100,30)" points=" 20 20 26 32 14 32" />
      <text x="24" y="17" transform="translate(-50,120)" style="stroke:none;" xml:space="preserve">johar::GemBaseImplementation</text>
      <rect x="0" y="0" transform="translate(-50,120)" width="259" style="fill:white; opacity:0; stroke:none;" height="39" />
      <rect x="0" y="0" transform="translate(-50,120)" width="259" style="fill:none;" height="39" />
      <line transform="translate(60,140)" x1="20" x2="20" y1="20" style="fill:none;" y2="60" />
      <line transform="translate(60,140)" x1="20" x2="20" y1="60" style="fill:none;" y2="100" />
      <line transform="translate(60,140)" x1="20" x2="26" y1="20" style="fill:none;" y2="32" />
      <line transform="translate(60,140)" x1="20" x2="14" y1="20" style="fill:none;" y2="32" />
      <polygon style="fill:white; stroke:none;" transform="translate(60,140)" points=" 20 20 26 32 14 32" />
      <polygon style="fill:none;" transform="translate(60,140)" points=" 20 20 26 32 14 32" />
      <line transform="translate(60,30)" x1="20" x2="20" y1="20" style="stroke-linecap:butt; fill:none; stroke-dasharray:8,5; stroke-miterlimit:5;" y2="55" />
      <line transform="translate(60,30)" x1="20" x2="20" y1="55" style="stroke-linecap:butt; fill:none; stroke-dasharray:8,5; stroke-miterlimit:5;" y2="90" />
      <line transform="translate(60,30)" x1="20" x2="26" y1="20" style="fill:none;" y2="32" />
      <line transform="translate(60,30)" x1="20" x2="14" y1="20" style="fill:none;" y2="32" />
      <polygon style="fill:white; stroke:none;" transform="translate(60,30)" points=" 20 20 26 32 14 32" />
      <polygon style="fill:none;" transform="translate(60,30)" points=" 20 20 26 32 14 32" />
      <line transform="translate(60,260)" x1="20" x2="20" y1="20" style="fill:none;" y2="50" />
      <line transform="translate(60,260)" x1="20" x2="20" y1="50" style="fill:none;" y2="80" />
      <line transform="translate(60,260)" x1="20" x2="26" y1="20" style="fill:none;" y2="32" />
      <line transform="translate(60,260)" x1="20" x2="14" y1="20" style="fill:none;" y2="32" />
      <polygon style="fill:white; stroke:none;" transform="translate(60,260)" points=" 20 20 26 32 14 32" />
      <polygon style="fill:none;" transform="translate(60,260)" points=" 20 20 26 32 14 32" />
      <text x="39" y="17" transform="translate(-50,240)" style="stroke:none;" xml:space="preserve">johar::GemImplementation</text>
      <rect x="0" y="0" transform="translate(-50,240)" width="259" style="fill:white; opacity:0; stroke:none;" height="39" />
      <rect x="0" y="0" transform="translate(-50,240)" width="259" style="fill:none;" height="39" />
      <text x="27" y="17" transform="translate(-50,340)" style="stroke:none;" xml:space="preserve">johar::GemFullImplementation</text>
      <rect x="0" y="0" transform="translate(-50,340)" width="259" style="fill:white; opacity:0; stroke:none;" height="39" />
      <rect x="0" y="0" transform="translate(-50,340)" width="259" style="fill:none;" height="39" />
      <line transform="translate(-190,150)" x1="20" x2="20" y1="20" style="stroke-linecap:butt; fill:none; stroke-dasharray:8,5; stroke-miterlimit:5;" y2="160" />
      <line transform="translate(-190,150)" x1="20" x2="120" y1="160" style="stroke-linecap:butt; fill:none; stroke-dasharray:8,5; stroke-miterlimit:5;" y2="160" />
      <line transform="translate(-190,150)" x1="120" x2="220" y1="160" style="stroke-linecap:butt; fill:none; stroke-dasharray:8,5; stroke-miterlimit:5;" y2="160" />
      <line transform="translate(-190,150)" x1="220" x2="220" y1="160" style="stroke-linecap:butt; fill:none; stroke-dasharray:8,5; stroke-miterlimit:5;" y2="190" />
      <line transform="translate(-190,150)" x1="20" x2="26" y1="20" style="fill:none;" y2="32" />
      <line transform="translate(-190,150)" x1="20" x2="14" y1="20" style="fill:none;" y2="32" />
      <polygon style="fill:white; stroke:none;" transform="translate(-190,150)" points=" 20 20 26 32 14 32" />
      <polygon style="fill:none;" transform="translate(-190,150)" points=" 20 20 26 32 14 32" />
      <text x="20" y="17" transform="translate(260,450)" style="stroke:none;" xml:space="preserve">ApplicationEngine</text>
      <rect x="0" y="0" transform="translate(260,450)" width="159" style="fill:white; opacity:0; stroke:none;" height="29" />
      <rect x="0" y="0" transform="translate(260,450)" width="159" style="fill:none;" height="29" />
      <line transform="translate(-230,150)" x1="20" x2="20" y1="20" style="stroke-linecap:butt; fill:none; stroke-dasharray:8,5; stroke-miterlimit:5;" y2="160" />
      <line transform="translate(-230,150)" x1="20" x2="20" y1="160" style="stroke-linecap:butt; fill:none; stroke-dasharray:8,5; stroke-miterlimit:5;" y2="300" />
      <line transform="translate(-230,150)" x1="20" x2="26" y1="20" style="fill:none;" y2="32" />
      <line transform="translate(-230,150)" x1="20" x2="14" y1="20" style="fill:none;" y2="32" />
      <text x="15" y="17" transform="translate(-260,450)" style="stroke:none;" xml:space="preserve">InterfaceInterpreter</text>
      <rect x="0" y="0" transform="translate(-260,450)" width="159" style="fill:white; opacity:0; stroke:none;" height="29" />
      <rect x="0" y="0" transform="translate(-260,450)" width="159" style="fill:none;" height="29" />
      <text x="40" y="17" transform="translate(0,450)" style="stroke:none;" xml:space="preserve">GemFactory</text>
      <rect x="0" y="0" transform="translate(0,450)" width="159" style="fill:white; opacity:0; stroke:none;" height="29" />
      <rect x="0" y="0" transform="translate(0,450)" width="159" style="fill:none;" height="29" />
      <line transform="translate(60,360)" x1="20" x2="20" y1="20" style="stroke-linecap:butt; fill:none; stroke-dasharray:8,5; stroke-miterlimit:5;" y2="55" />
      <line transform="translate(60,360)" x1="20" x2="20" y1="55" style="stroke-linecap:butt; fill:none; stroke-dasharray:8,5; stroke-miterlimit:5;" y2="90" />
      <line transform="translate(60,360)" x1="20" x2="26" y1="20" style="fill:none;" y2="32" />
      <line transform="translate(60,360)" x1="20" x2="14" y1="20" style="fill:none;" y2="32" />
      <polygon points=" 0 0 296 0 296 0 309 14 309 14 309 129 309 129 0 129 0 129 0 0" transform="translate(-260,530)" style="fill:white; opacity:0; stroke:none;" />
      <text x="7" y="17" transform="translate(-260,530)" style="stroke:none;" xml:space="preserve">InterfaceInterpreter can get a GemSetting</text>
      <text x="7" y="34" transform="translate(-260,530)" style="stroke:none;" xml:space="preserve">from GemFactory.</text>
      <text x="7" y="51" transform="translate(-260,530)" style="stroke:none;" xml:space="preserve">GemFactory knows it is returning a</text>
      <text x="7" y="68" transform="translate(-260,530)" style="stroke:none;" xml:space="preserve">GemFullImplementation, but</text>
      <text x="7" y="85" transform="translate(-260,530)" style="stroke:none;" xml:space="preserve">InterfaceInterpreter does not.</text>
      <text x="7" y="102" transform="translate(-260,530)" style="stroke:none;" xml:space="preserve">Therefore, InterfaceInterpreter cannot use</text>
      <text x="7" y="119" transform="translate(-260,530)" style="stroke:none;" xml:space="preserve">the services offered by Gem.</text>
      <line transform="translate(-260,530)" x1="0" x2="296" y1="0" style="fill:none;" y2="0" />
      <line transform="translate(-260,530)" x1="296" x2="309" y1="0" style="fill:none;" y2="14" />
      <line transform="translate(-260,530)" x1="309" x2="309" y1="14" style="fill:none;" y2="129" />
      <line transform="translate(-260,530)" x1="309" x2="0" y1="129" style="fill:none;" y2="129" />
      <line transform="translate(-260,530)" x1="0" x2="0" y1="129" style="fill:none;" y2="0" />
      <line transform="translate(-260,530)" x1="296" x2="296" y1="0" style="fill:none;" y2="14" />
      <line transform="translate(-260,530)" x1="296" x2="309" y1="14" style="fill:none;" y2="14" />
      <line transform="translate(110,150)" x1="230" x2="230" y1="20" style="stroke-linecap:butt; fill:none; stroke-dasharray:8,5; stroke-miterlimit:5;" y2="60" />
      <line transform="translate(110,150)" x1="230" x2="125" y1="60" style="stroke-linecap:butt; fill:none; stroke-dasharray:8,5; stroke-miterlimit:5;" y2="60" />
      <line transform="translate(110,150)" x1="125" x2="20" y1="60" style="stroke-linecap:butt; fill:none; stroke-dasharray:8,5; stroke-miterlimit:5;" y2="60" />
      <line transform="translate(110,150)" x1="20" x2="20" y1="60" style="stroke-linecap:butt; fill:none; stroke-dasharray:8,5; stroke-miterlimit:5;" y2="90" />
      <line transform="translate(110,150)" x1="230" x2="236" y1="20" style="fill:none;" y2="32" />
      <line transform="translate(110,150)" x1="230" x2="224" y1="20" style="fill:none;" y2="32" />
      <polygon style="fill:white; stroke:none;" transform="translate(110,150)" points=" 230 20 236 32 224 32" />
      <polygon style="fill:none;" transform="translate(110,150)" points=" 230 20 236 32 224 32" />
      <line transform="translate(350,150)" x1="20" x2="20" y1="20" style="stroke-linecap:butt; fill:none; stroke-dasharray:8,5; stroke-miterlimit:5;" y2="160" />
      <line transform="translate(350,150)" x1="20" x2="20" y1="160" style="stroke-linecap:butt; fill:none; stroke-dasharray:8,5; stroke-miterlimit:5;" y2="300" />
      <line transform="translate(350,150)" x1="20" x2="26" y1="20" style="fill:none;" y2="32" />
      <line transform="translate(350,150)" x1="20" x2="14" y1="20" style="fill:none;" y2="32" />
      <line transform="translate(-170,460)" x1="20" x2="35" y1="20" style="stroke-linecap:butt; fill:none; stroke-dasharray:8,5; stroke-miterlimit:5;" y2="45" />
      <line transform="translate(-170,460)" x1="35" x2="50" y1="45" style="stroke-linecap:butt; fill:none; stroke-dasharray:8,5; stroke-miterlimit:5;" y2="70" />
      <line transform="translate(230,460)" x1="90" x2="55" y1="20" style="stroke-linecap:butt; fill:none; stroke-dasharray:8,5; stroke-miterlimit:5;" y2="45" />
      <line transform="translate(230,460)" x1="55" x2="20" y1="45" style="stroke-linecap:butt; fill:none; stroke-dasharray:8,5; stroke-miterlimit:5;" y2="70" />
      <line transform="translate(-30,460)" x1="70" x2="45" y1="20" style="stroke-linecap:butt; fill:none; stroke-dasharray:8,5; stroke-miterlimit:5;" y2="45" />
      <line transform="translate(-30,460)" x1="45" x2="20" y1="45" style="stroke-linecap:butt; fill:none; stroke-dasharray:8,5; stroke-miterlimit:5;" y2="70" />
      <line transform="translate(160,360)" x1="20" x2="30" y1="20" style="stroke-linecap:butt; fill:none; stroke-dasharray:8,5; stroke-miterlimit:5;" y2="95" />
      <line transform="translate(160,360)" x1="30" x2="40" y1="95" style="stroke-linecap:butt; fill:none; stroke-dasharray:8,5; stroke-miterlimit:5;" y2="170" />
      <polygon points=" 0 0 306 0 306 0 319 14 319 14 319 129 319 129 0 129 0 129 0 0" transform="translate(100,530)" style="fill:white; opacity:0; stroke:none;" />
      <text x="7" y="17" transform="translate(100,530)" style="stroke:none;" xml:space="preserve">GemFullImplementation knows that it is</text>
      <text x="7" y="34" transform="translate(100,530)" style="stroke:none;" xml:space="preserve">also a Gem, so it can pass itself to the</text>
      <text x="7" y="51" transform="translate(100,530)" style="stroke:none;" xml:space="preserve">Application Engine.</text>
      <text x="7" y="68" transform="translate(100,530)" style="stroke:none;" xml:space="preserve">ApplicationEngine just knows that it has a</text>
      <text x="7" y="85" transform="translate(100,530)" style="stroke:none;" xml:space="preserve">Gem and therefore cannot use the services</text>
      <text x="7" y="102" transform="translate(100,530)" style="stroke:none;" xml:space="preserve">offered by GemSetting.</text>
      <line transform="translate(100,530)" x1="0" x2="306" y1="0" style="fill:none;" y2="0" />
      <line transform="translate(100,530)" x1="306" x2="319" y1="0" style="fill:none;" y2="14" />
      <line transform="translate(100,530)" x1="319" x2="319" y1="14" style="fill:none;" y2="129" />
      <line transform="translate(100,530)" x1="319" x2="0" y1="129" style="fill:none;" y2="129" />
      <line transform="translate(100,530)" x1="0" x2="0" y1="129" style="fill:none;" y2="0" />
      <line transform="translate(100,530)" x1="306" x2="306" y1="0" style="fill:none;" y2="14" />
      <line transform="translate(100,530)" x1="306" x2="319" y1="14" style="fill:none;" y2="14" />
    </g>
  </g>
</svg>
