<?xml version="1.0" encoding="UTF-8"?>

<!DOCTYPE svg PUBLIC '-//W3C//DTD SVG 1.0//EN' 'http://www.w3.org/TR/2001/REC-SVG-20010904/DTD/svg10.dtd'>
<svg xmlns:xlink="http://www.w3.org/1999/xlink" style="fill-opacity:1; color-rendering:auto; color-interpolation:auto; stroke:black; text-rendering:auto; stroke-linecap:square; stroke-miterlimit:10; stroke-opacity:1; shape-rendering:auto; fill:black; stroke-dasharray:none; font-weight:normal; stroke-width:1; font-family:&apos;Dialog&apos;; font-style:normal; stroke-linejoin:miter; font-size:12; stroke-dashoffset:0; image-rendering:auto;" xmlns="http://www.w3.org/2000/svg">
  <!--Generated by the Batik Graphics2D SVG Generator-->
  <defs id="genericDefs" />
  <g>
    <g transform="translate(180,50)" style="font-size:14; text-rendering:geometricPrecision; color-rendering:optimizeQuality; image-rendering:optimizeSpeed; font-family:sans-serif; color-interpolation:linearRGB;">
      <line x1="20" x2="70" y1="200" style="fill:none;" y2="200" />
      <line x1="70" x2="70" y1="200" style="fill:none;" y2="110" />
      <line x1="70" x2="70" y1="110" style="fill:none;" y2="20" />
      <line x1="70" x2="120" y1="20" style="fill:none;" y2="20" />
      <line x1="20" x2="32" y1="200" style="fill:none;" y2="194" />
      <line x1="20" x2="32" y1="200" style="fill:none;" y2="206" />
      <polygon style="fill:white; stroke:none;" points=" 20 200 32 194 32 206" />
      <polygon style="fill:none;" points=" 20 200 32 194 32 206" />
      <line transform="translate(560,540)" x1="20" x2="20" y1="20" style="fill:none;" y2="45" />
      <line transform="translate(560,540)" x1="20" x2="20" y1="45" style="fill:none;" y2="70" />
      <line transform="translate(560,540)" x1="20" x2="26" y1="20" style="fill:none;" y2="32" />
      <line transform="translate(560,540)" x1="20" x2="14" y1="20" style="fill:none;" y2="32" />
      <polygon style="fill:white; stroke:none;" transform="translate(560,540)" points=" 20 20 26 32 14 32" />
      <polygon style="fill:none;" transform="translate(560,540)" points=" 20 20 26 32 14 32" />
      <text x="112" y="17" transform="translate(120,10)" style="stroke:none;" xml:space="preserve">Idf</text>
      <line transform="translate(120,10)" x1="0" x2="240" y1="20" style="fill:none;" y2="20" />
      <text x="7" y="37" transform="translate(120,10)" style="stroke:none;" xml:space="preserve">-application: String[1]</text>
      <text x="7" y="54" transform="translate(120,10)" style="stroke:none;" xml:space="preserve">-applicationEngine: String[1]</text>
      <text x="7" y="71" transform="translate(120,10)" style="stroke:none;" xml:space="preserve">-idfVersion: String[1]</text>
      <rect x="0" y="0" transform="translate(120,10)" width="239" style="fill:white; opacity:0; stroke:none;" height="79" />
      <rect x="0" y="0" transform="translate(120,10)" width="239" style="fill:none;" height="79" />
      <text x="94" y="17" transform="translate(120,100)" style="stroke:none;" xml:space="preserve">IdfTable</text>
      <line transform="translate(120,100)" x1="0" x2="240" y1="20" style="fill:none;" y2="20" />
      <text x="7" y="37" transform="translate(120,100)" style="stroke:none;" xml:space="preserve">-tableName: String[1]</text>
      <text x="7" y="54" transform="translate(120,100)" style="stroke:none;" xml:space="preserve">-browsable: boolean[1]</text>
      <text x="7" y="71" transform="translate(120,100)" style="stroke:none;" xml:space="preserve">-defaultHeading: String[1]</text>
      <rect x="0" y="0" transform="translate(120,100)" width="239" style="fill:white; opacity:0; stroke:none;" height="89" />
      <rect x="0" y="0" transform="translate(120,100)" width="239" style="fill:none;" height="89" />
      <line transform="translate(0,110)" x1="20" x2="70" y1="90" style="fill:none;" y2="90" />
      <line transform="translate(0,110)" x1="70" x2="70" y1="90" style="fill:none;" y2="55" />
      <line transform="translate(0,110)" x1="70" x2="70" y1="55" style="fill:none;" y2="20" />
      <line transform="translate(0,110)" x1="70" x2="120" y1="20" style="fill:none;" y2="20" />
      <line transform="translate(0,110)" x1="20" x2="32" y1="90" style="fill:none;" y2="84" />
      <line transform="translate(0,110)" x1="20" x2="32" y1="90" style="fill:none;" y2="96" />
      <polygon style="fill:white; stroke:none;" transform="translate(0,110)" points=" 20 90 32 84 32 96" />
      <polygon style="fill:none;" transform="translate(0,110)" points=" 20 90 32 84 32 96" />
      <text x="60" y="17" transform="translate(-170,180)" style="stroke:none;" xml:space="preserve">IdfElement</text>
      <line transform="translate(-170,180)" x1="0" x2="190" y1="20" style="fill:none;" y2="20" />
      <text x="7" y="37" transform="translate(-170,180)" style="stroke:none;" xml:space="preserve">#domElement: Element[1]</text>
      <text x="7" y="54" transform="translate(-170,180)" style="stroke:none;" xml:space="preserve">#eh: ErrorHandler[1]</text>
      <text x="7" y="71" transform="translate(-170,180)" style="stroke:none;" xml:space="preserve">#elementKind: String[1]</text>
      <text x="7" y="88" transform="translate(-170,180)" style="stroke:none;" xml:space="preserve">#elementName: String[1]</text>
      <rect x="0" y="0" transform="translate(-170,180)" width="189" style="fill:white; opacity:0; stroke:none;" height="99" />
      <rect x="0" y="0" transform="translate(-170,180)" width="189" style="fill:none;" height="99" />
      <text x="56" y="17" transform="translate(120,210)" style="stroke:none;" xml:space="preserve">IdfCommandGroup</text>
      <line transform="translate(120,210)" x1="0" x2="240" y1="20" style="fill:none;" y2="20" />
      <text x="7" y="37" transform="translate(120,210)" style="stroke:none;" xml:space="preserve">-member: String[1..*]</text>
      <text x="7" y="54" transform="translate(120,210)" style="stroke:none;" xml:space="preserve">-commandGroupName: String[1]</text>
      <text x="7" y="71" transform="translate(120,210)" style="stroke:none;" xml:space="preserve">-mnemonic: String[1]</text>
      <rect x="0" y="0" transform="translate(120,210)" width="239" style="fill:white; opacity:0; stroke:none;" height="89" />
      <rect x="0" y="0" transform="translate(120,210)" width="239" style="fill:none;" height="89" />
      <line transform="translate(0,180)" x1="20" x2="70" y1="20" style="fill:none;" y2="20" />
      <line transform="translate(0,180)" x1="70" x2="70" y1="20" style="fill:none;" y2="45" />
      <line transform="translate(0,180)" x1="70" x2="70" y1="45" style="fill:none;" y2="70" />
      <line transform="translate(0,180)" x1="70" x2="120" y1="70" style="fill:none;" y2="70" />
      <line transform="translate(0,180)" x1="20" x2="32" y1="20" style="fill:none;" y2="14" />
      <line transform="translate(0,180)" x1="20" x2="32" y1="20" style="fill:none;" y2="26" />
      <polygon style="fill:white; stroke:none;" transform="translate(0,180)" points=" 20 20 32 14 32 26" />
      <polygon style="fill:none;" transform="translate(0,180)" points=" 20 20 32 14 32 26" />
      <text x="109" y="17" transform="translate(460,230)" style="stroke:none;" xml:space="preserve">IdfStage</text>
      <line transform="translate(460,230)" x1="0" x2="270" y1="20" style="fill:none;" y2="20" />
      <text x="7" y="37" transform="translate(460,230)" style="stroke:none;" xml:space="preserve">-commandMethod: String[1]</text>
      <text x="7" y="54" transform="translate(460,230)" style="stroke:none;" xml:space="preserve">-label: String[1]</text>
      <text x="7" y="71" transform="translate(460,230)" style="stroke:none;" xml:space="preserve">-parameterCheckMethod: String[0..1]</text>
      <rect x="0" y="0" transform="translate(460,230)" width="269" style="fill:white; opacity:0; stroke:none;" height="109" />
      <rect x="0" y="0" transform="translate(460,230)" width="269" style="fill:none;" height="109" />
      <line transform="translate(0,180)" x1="20" x2="70" y1="20" style="fill:none;" y2="20" />
      <line transform="translate(0,180)" x1="70" x2="70" y1="20" style="fill:none;" y2="80" />
      <line transform="translate(0,180)" x1="70" x2="70" y1="80" style="fill:none;" y2="140" />
      <line transform="translate(0,180)" x1="70" x2="460" y1="140" style="fill:none;" y2="140" />
      <line transform="translate(0,180)" x1="20" x2="32" y1="20" style="fill:none;" y2="14" />
      <line transform="translate(0,180)" x1="20" x2="32" y1="20" style="fill:none;" y2="26" />
      <polygon style="fill:white; stroke:none;" transform="translate(0,180)" points=" 20 20 32 14 32 26" />
      <polygon style="fill:none;" transform="translate(0,180)" points=" 20 20 32 14 32 26" />
      <text x="78" y="17" transform="translate(480,10)" style="stroke:none;" xml:space="preserve">IdfCommand</text>
      <line transform="translate(480,10)" x1="0" x2="240" y1="20" style="fill:none;" y2="20" />
      <text x="7" y="37" transform="translate(480,10)" style="stroke:none;" xml:space="preserve">-commandName: String[1]</text>
      <text x="7" y="54" transform="translate(480,10)" style="stroke:none;" xml:space="preserve">-activeIfMethod: String[0..1]</text>
      <text x="7" y="71" transform="translate(480,10)" style="stroke:none;" xml:space="preserve">-label: String[1]</text>
      <text x="7" y="88" transform="translate(480,10)" style="stroke:none;" xml:space="preserve">-briefHelp: String[1]</text>
      <text x="7" y="105" transform="translate(480,10)" style="stroke:none;" xml:space="preserve">-oneLineHelp: String[1]</text>
      <text x="7" y="122" transform="translate(480,10)" style="stroke:none;" xml:space="preserve">-multiLineHelp: String[1]</text>
      <text x="7" y="139" transform="translate(480,10)" style="stroke:none;" xml:space="preserve">-prominence: int[1]</text>
      <text x="7" y="156" transform="translate(480,10)" style="stroke:none;" xml:space="preserve">-quitAfter: boolean[1]</text>
      <text x="7" y="173" transform="translate(480,10)" style="stroke:none;" xml:space="preserve">-quitAfterIfMethod: String[0..1]</text>
      <rect x="0" y="0" transform="translate(480,10)" width="239" style="fill:white; opacity:0; stroke:none;" height="179" />
      <rect x="0" y="0" transform="translate(480,10)" width="239" style="fill:none;" height="179" />
      <line transform="translate(340,0)" x1="140" x2="130" y1="20" style="fill:none;" y2="20" />
      <line transform="translate(340,0)" x1="130" x2="75" y1="20" style="fill:none;" y2="20" />
      <line transform="translate(340,0)" x1="75" x2="20" y1="20" style="fill:none;" y2="20" />
      <line transform="translate(340,0)" x1="139" x2="127" y1="20" style="fill:none;" y2="26" />
      <line transform="translate(340,0)" x1="139" x2="127" y1="20" style="fill:none;" y2="14" />
      <text x="100" y="34" transform="translate(340,0)" style="stroke:none;" xml:space="preserve">0..n</text>
      <text x="33" y="35" transform="translate(340,0)" style="stroke:none;" xml:space="preserve">1</text>
      <line transform="translate(0,-50)" x1="20" x2="70" y1="250" style="fill:none;" y2="250" />
      <line transform="translate(0,-50)" x1="70" x2="70" y1="250" style="fill:none;" y2="20" />
      <line transform="translate(0,-50)" x1="70" x2="300" y1="20" style="fill:none;" y2="20" />
      <line transform="translate(0,-50)" x1="300" x2="530" y1="20" style="fill:none;" y2="20" />
      <line transform="translate(0,-50)" x1="530" x2="530" y1="20" style="fill:none;" y2="60" />
      <line transform="translate(0,-50)" x1="20" x2="32" y1="250" style="fill:none;" y2="244" />
      <line transform="translate(0,-50)" x1="20" x2="32" y1="250" style="fill:none;" y2="256" />
      <polygon style="fill:white; stroke:none;" transform="translate(0,-50)" points=" 20 250 32 244 32 256" />
      <polygon style="fill:none;" transform="translate(0,-50)" points=" 20 250 32 244 32 256" />
      <line transform="translate(700,150)" x1="30" x2="70" y1="90" style="fill:none;" y2="90" />
      <line transform="translate(700,150)" x1="70" x2="70" y1="90" style="fill:none;" y2="55" />
      <line transform="translate(700,150)" x1="70" x2="70" y1="55" style="fill:none;" y2="20" />
      <line transform="translate(700,150)" x1="70" x2="20" y1="20" style="fill:none;" y2="20" />
      <line transform="translate(700,150)" x1="30" x2="42" y1="90" style="fill:none;" y2="84" />
      <line transform="translate(700,150)" x1="30" x2="42" y1="90" style="fill:none;" y2="96" />
      <text x="43" y="105" transform="translate(700,150)" style="stroke:none;" xml:space="preserve">1..n</text>
      <text x="33" y="35" transform="translate(700,150)" style="stroke:none;" xml:space="preserve"> 1</text>
      <line transform="translate(340,30)" x1="20" x2="90" y1="220" style="fill:none;" y2="220" />
      <line transform="translate(340,30)" x1="90" x2="90" y1="220" style="fill:none;" y2="120" />
      <line transform="translate(340,30)" x1="90" x2="90" y1="120" style="fill:none;" y2="20" />
      <line transform="translate(340,30)" x1="90" x2="20" y1="20" style="fill:none;" y2="20" />
      <line transform="translate(340,30)" x1="20" x2="32" y1="220" style="fill:none;" y2="214" />
      <line transform="translate(340,30)" x1="20" x2="32" y1="220" style="fill:none;" y2="226" />
      <text x="33" y="234" transform="translate(340,30)" style="stroke:none;" xml:space="preserve">0..n</text>
      <text x="33" y="35" transform="translate(340,30)" style="stroke:none;" xml:space="preserve">1</text>
      <line transform="translate(340,60)" x1="20" x2="50" y1="100" style="fill:none;" y2="100" />
      <line transform="translate(340,60)" x1="50" x2="50" y1="100" style="fill:none;" y2="60" />
      <line transform="translate(340,60)" x1="50" x2="50" y1="60" style="fill:none;" y2="20" />
      <line transform="translate(340,60)" x1="50" x2="20" y1="20" style="fill:none;" y2="20" />
      <line transform="translate(340,60)" x1="20" x2="32" y1="100" style="fill:none;" y2="94" />
      <line transform="translate(340,60)" x1="20" x2="32" y1="100" style="fill:none;" y2="106" />
      <text x="33" y="114" transform="translate(340,60)" style="stroke:none;" xml:space="preserve">0..n</text>
      <text x="33" y="35" transform="translate(340,60)" style="stroke:none;" xml:space="preserve">1</text>
      <text x="78" y="17" transform="translate(480,370)" style="stroke:none;" xml:space="preserve">IdfParameter</text>
      <line transform="translate(480,370)" x1="0" x2="240" y1="20" style="fill:none;" y2="20" />
      <text x="7" y="37" transform="translate(480,370)" style="stroke:none;" xml:space="preserve">-parameterName: String[1]</text>
      <text x="7" y="54" transform="translate(480,370)" style="stroke:none;" xml:space="preserve">-type: String[1]</text>
      <text x="7" y="71" transform="translate(480,370)" style="stroke:none;" xml:space="preserve">-choices: String[0..1]</text>
      <text x="7" y="88" transform="translate(480,370)" style="stroke:none;" xml:space="preserve">-defaultValue: String[1]</text>
      <text x="7" y="105" transform="translate(480,370)" style="stroke:none;" xml:space="preserve">-defaultValueMethod: String[0..1]</text>
      <text x="7" y="122" transform="translate(480,370)" style="stroke:none;" xml:space="preserve">-fileConstraint: String[0..1]</text>
      <text x="7" y="139" transform="translate(480,370)" style="stroke:none;" xml:space="preserve">-repsModel: String[1]</text>
      <text x="7" y="156" transform="translate(480,370)" style="stroke:none;" xml:space="preserve">-label: String[1]</text>
      <text x="7" y="173" transform="translate(480,370)" style="stroke:none;" xml:space="preserve">...</text>
      <rect x="0" y="0" transform="translate(480,370)" width="239" style="fill:white; opacity:0; stroke:none;" height="189" />
      <rect x="0" y="0" transform="translate(480,370)" width="239" style="fill:none;" height="189" />
      <line transform="translate(700,290)" x1="20" x2="50" y1="90" style="fill:none;" y2="90" />
      <line transform="translate(700,290)" x1="50" x2="50" y1="90" style="fill:none;" y2="55" />
      <line transform="translate(700,290)" x1="50" x2="50" y1="55" style="fill:none;" y2="20" />
      <line transform="translate(700,290)" x1="50" x2="30" y1="20" style="fill:none;" y2="20" />
      <line transform="translate(700,290)" x1="20" x2="32" y1="90" style="fill:none;" y2="84" />
      <line transform="translate(700,290)" x1="20" x2="32" y1="90" style="fill:none;" y2="96" />
      <text x="33" y="104" transform="translate(700,290)" style="stroke:none;" xml:space="preserve">0..n</text>
      <text x="43" y="35" transform="translate(700,290)" style="stroke:none;" xml:space="preserve">1</text>
      <text x="82" y="17" transform="translate(480,610)" style="stroke:none;" xml:space="preserve">IdfQuestion</text>
      <line transform="translate(480,610)" x1="0" x2="240" y1="20" style="fill:none;" y2="20" />
      <text x="7" y="37" transform="translate(480,610)" style="stroke:none;" xml:space="preserve">_askIfMethod: String[1]</text>
      <rect x="0" y="0" transform="translate(480,610)" width="239" style="fill:white; opacity:0; stroke:none;" height="59" />
      <rect x="0" y="0" transform="translate(480,610)" width="239" style="fill:none;" height="59" />
      <line transform="translate(700,250)" x1="20" x2="70" y1="370" style="fill:none;" y2="370" />
      <line transform="translate(700,250)" x1="70" x2="70" y1="370" style="fill:none;" y2="195" />
      <line transform="translate(700,250)" x1="70" x2="70" y1="195" style="fill:none;" y2="20" />
      <line transform="translate(700,250)" x1="70" x2="30" y1="20" style="fill:none;" y2="20" />
      <line transform="translate(700,250)" x1="20" x2="32" y1="370" style="fill:none;" y2="364" />
      <line transform="translate(700,250)" x1="20" x2="32" y1="370" style="fill:none;" y2="376" />
      <text x="33" y="384" transform="translate(700,250)" style="stroke:none;" xml:space="preserve">0..n</text>
      <text x="43" y="35" transform="translate(700,250)" style="stroke:none;" xml:space="preserve">1</text>
      <line transform="translate(0,180)" x1="20" x2="70" y1="20" style="fill:none;" y2="20" />
      <line transform="translate(0,180)" x1="70" x2="70" y1="20" style="fill:none;" y2="110" />
      <line transform="translate(0,180)" x1="70" x2="70" y1="110" style="fill:none;" y2="200" />
      <line transform="translate(0,180)" x1="70" x2="480" y1="200" style="fill:none;" y2="200" />
      <line transform="translate(0,180)" x1="20" x2="32" y1="20" style="fill:none;" y2="14" />
      <line transform="translate(0,180)" x1="20" x2="32" y1="20" style="fill:none;" y2="26" />
      <polygon style="fill:white; stroke:none;" transform="translate(0,180)" points=" 20 20 32 14 32 26" />
      <polygon style="fill:none;" transform="translate(0,180)" points=" 20 20 32 14 32 26" />
    </g>
  </g>
</svg>
